<svg version="1.1" id="Lager_1" xmlns="http://www.w3.org/2000/svg" xmlns:xlink="http://www.w3.org/1999/xlink" x="0px" y="0px" style="enable-background:new 0 0 1199 447.5;" xml:space="preserve" viewBox="305.22 85.97 588.57 275.58" width="153" height="71">
<style type="text/css">
	.st0{fill:#FFFFFF;}
	.st1{fill:#282828;}
	.st2{fill:#FF0000;}
</style>
<g>
	<g>
		<polygon class="st0" points="306.5,236.91 341.21,236.91 341.21,307.72 369.36,307.72 369.36,236.91 404.07,236.91 404.07,210.15     306.5,210.15   "/>
		<rect x="417.37" y="210.15" class="st0" width="28.16" height="97.57"/>
		<path class="st0" d="M521.98,248.48l-23.42-3.76c-3.62-0.56-7.39-1.81-7.39-5.71c0-4.74,5.3-7.25,13.1-7.25    c8.78,0,16.45,3.2,19.1,9.9l28.43-9.48c-6.83-17-27.74-23.42-45.72-23.42c-21.6,0-45.02,9.34-45.02,31.36    c0,17.84,15.33,25.51,33.59,28.43l21.74,3.48c6.83,1.11,9.76,4.04,9.76,7.25c0,4.88-6.83,6.83-15.33,6.83    c-12.68,0-20.21-4.46-23.97-13.24l-28.3,9.48c7.95,17.98,28.43,26.76,50.88,26.76c22.44,0,46.83-8.78,46.83-32.34    C556.26,262.14,546.79,252.52,521.98,248.48z"/>
		<path class="st0" d="M629.58,248.48l-23.42-3.76c-3.62-0.56-7.39-1.81-7.39-5.71c0-4.74,5.3-7.25,13.1-7.25    c8.78,0,16.45,3.2,19.1,9.9l28.43-9.48c-6.83-17-27.74-23.42-45.72-23.42c-21.6,0-45.02,9.34-45.02,31.36    c0,17.84,15.33,25.51,33.59,28.43l21.74,3.48c6.83,1.11,9.76,4.04,9.76,7.25c0,4.88-6.83,6.83-15.33,6.83    c-12.68,0-20.21-4.46-23.97-13.24l-28.3,9.48c7.95,17.98,28.43,26.76,50.88,26.76c22.44,0,46.83-8.78,46.83-32.34    C663.87,262.14,654.39,252.52,629.58,248.48z"/>
		<path class="st0" d="M730.85,208.75c-34.85,0-57.43,20.63-57.43,50.18c0,29.55,22.58,50.18,57.43,50.18    c34.85,0,57.43-20.63,57.43-50.18C788.28,229.38,765.7,208.75,730.85,208.75z M730.85,284.3c-18.12,0-27.74-11.57-27.74-25.37    c0-13.8,9.62-25.37,27.74-25.37c18.12,0,27.74,11.57,27.74,25.37C758.59,272.73,748.97,284.3,730.85,284.3z"/>
		<polygon class="st0" points="794.93,210.15 794.93,236.91 829.64,236.91 829.64,307.72 857.79,307.72 857.79,236.91 892.5,236.91     892.5,210.15   "/>
	</g>
	<g>
		<rect x="495.28" y="85.97" class="st1" width="97.57" height="97.57"/>
		<rect x="606.15" y="85.97" class="st2" width="97.57" height="97.57"/>
		<polygon class="st0" points="690.42,124.55 665.14,124.55 665.14,99.27 644.74,99.27 644.74,124.55 619.46,124.55 619.46,144.95     644.74,144.95 644.74,170.23 665.14,170.23 665.14,144.95 690.42,144.95   "/>
		<polygon class="st0" points="579.54,99.27 554.27,99.27 533.86,99.27 508.58,99.27 508.58,118.79 533.86,118.79 533.86,170.23     554.27,170.23 554.27,118.79 579.54,118.79   "/>
	</g>
	<g>
		<path class="st0" d="M315.54,361.53c-5.75,0-8.85-3.1-10.31-7.97l3.3-1.11c1.34,3.72,2.95,5.75,6.59,5.94    c3.22,0.15,5.98-1.15,5.98-4.41c0-2.68-1.92-3.79-4.02-4.37l-4.6-1.26c-3.75-1.03-6.48-2.72-6.48-6.74c0-4.9,4.06-7.66,8.93-7.66    c4.6,0,7.97,2.49,9,6.74l-3.22,1.07c-0.96-3.14-3.18-4.56-5.71-4.67c-2.84-0.15-5.33,1.34-5.33,4.33c0,1.84,0.96,2.76,3.6,3.45    l4.67,1.23c5.25,1.38,6.82,4.21,6.82,7.51C324.78,358.58,321.14,361.53,315.54,361.53z"/>
		<path class="st0" d="M347.65,340.23l-5.75,20.92h-3.6l-9-26.82h3.91l6.9,21.3l5.56-21.3h4.18l5.48,21.3l6.9-21.3h3.91l-9,26.82    h-3.79L347.65,340.23z"/>
		<path class="st0" d="M377.09,334.33v26.82h-3.6v-26.82H377.09z"/>
		<path class="st0" d="M395.67,361.53c-5.75,0-8.85-3.1-10.31-7.97l3.3-1.11c1.34,3.72,2.95,5.75,6.59,5.94    c3.22,0.15,5.98-1.15,5.98-4.41c0-2.68-1.92-3.79-4.02-4.37l-4.6-1.26c-3.75-1.03-6.48-2.72-6.48-6.74c0-4.9,4.06-7.66,8.93-7.66    c4.6,0,7.97,2.49,9,6.74l-3.22,1.07c-0.96-3.14-3.18-4.56-5.71-4.67c-2.84-0.15-5.33,1.34-5.33,4.33c0,1.84,0.96,2.76,3.6,3.45    l4.67,1.23c5.25,1.38,6.82,4.21,6.82,7.51C404.91,358.58,401.27,361.53,395.67,361.53z"/>
		<path class="st0" d="M421.5,361.53c-5.75,0-8.85-3.1-10.31-7.97l3.3-1.11c1.34,3.72,2.95,5.75,6.59,5.94    c3.22,0.15,5.98-1.15,5.98-4.41c0-2.68-1.92-3.79-4.02-4.37l-4.6-1.26c-3.75-1.03-6.48-2.72-6.48-6.74c0-4.9,4.06-7.66,8.93-7.66    c4.6,0,7.97,2.49,9,6.74l-3.22,1.07c-0.96-3.14-3.18-4.56-5.71-4.67c-2.84-0.15-5.33,1.34-5.33,4.33c0,1.84,0.96,2.76,3.6,3.45    l4.67,1.23c5.25,1.38,6.82,4.21,6.82,7.51C430.73,358.58,427.09,361.53,421.5,361.53z"/>
		<path class="st0" d="M466.91,340.23l-5.75,20.92h-3.6l-9-26.82h3.91l6.9,21.3l5.56-21.3h4.18l5.48,21.3l6.9-21.3h3.91l-9,26.82    h-3.79L466.91,340.23z"/>
		<path class="st0" d="M506.07,361.15l-2.3-7.2h-10.12l-2.3,7.2h-3.83l9-26.82h4.37l9,26.82H506.07z M502.82,350.84l-4.06-12.8    l-4.1,12.8H502.82z"/>
		<path class="st0" d="M533.01,337.47h-8.7v23.68h-3.6v-23.68h-8.77v-3.14h21.07V337.47z"/>
		<path class="st0" d="M550.95,361.53c-7.55,0-12.38-5.63-12.38-13.83c0-8.12,4.83-13.76,12.38-13.76c5.75,0,9.73,3.18,11.03,7.85    l-3.41,1.15c-1.07-3.6-3.49-5.86-7.62-5.86c-5.82,0-8.7,4.83-8.7,10.65c0,5.79,2.84,10.65,8.77,10.65c4.06,0,6.44-2.26,7.55-5.86    l3.41,1.15C560.6,358.39,556.66,361.53,550.95,361.53z"/>
		<path class="st0" d="M573.98,334.33v11.46H588v-11.46h3.6v26.82H588v-12.22h-14.02v12.22h-3.6v-26.82H573.98z"/>
		<path class="st0" d="M619.54,334.33v3.14h-14.06v8.31h13.49v3.14h-13.49v9.08h14.06v3.14h-17.66v-26.82H619.54z"/>
		<path class="st0" d="M636.63,361.53c-5.75,0-8.85-3.1-10.31-7.97l3.3-1.11c1.34,3.72,2.95,5.75,6.59,5.94    c3.22,0.15,5.98-1.15,5.98-4.41c0-2.68-1.92-3.79-4.02-4.37l-4.6-1.26c-3.75-1.03-6.48-2.72-6.48-6.74c0-4.9,4.06-7.66,8.93-7.66    c4.6,0,7.97,2.49,9,6.74l-3.22,1.07c-0.96-3.14-3.18-4.56-5.71-4.67c-2.84-0.15-5.33,1.34-5.33,4.33c0,1.84,0.96,2.76,3.6,3.45    l4.67,1.23c5.25,1.38,6.82,4.21,6.82,7.51C645.87,358.58,642.23,361.53,636.63,361.53z"/>
		<path class="st0" d="M675.26,361.53c-5.75,0-8.85-3.1-10.31-7.97l3.3-1.11c1.34,3.72,2.95,5.75,6.59,5.94    c3.22,0.15,5.98-1.15,5.98-4.41c0-2.68-1.92-3.79-4.02-4.37l-4.6-1.26c-3.75-1.03-6.48-2.72-6.48-6.74c0-4.9,4.06-7.66,8.93-7.66    c4.6,0,7.97,2.49,9,6.74l-3.22,1.07c-0.96-3.14-3.18-4.56-5.71-4.67c-2.84-0.15-5.33,1.34-5.33,4.33c0,1.84,0.96,2.76,3.6,3.45    l4.67,1.23c5.25,1.38,6.82,4.21,6.82,7.51C684.49,358.58,680.85,361.53,675.26,361.53z"/>
		<path class="st0" d="M696.38,334.33v26.82h-3.6v-26.82H696.38z"/>
		<path class="st0" d="M710.33,334.33l14.33,21v-21h3.6v26.82h-3.68l-14.33-21.03v21.03h-3.6v-26.82H710.33z"/>
		<path class="st0" d="M749.26,361.53c-7.55,0-12.38-5.63-12.38-13.83c0-8.12,4.83-13.76,12.38-13.76c5.75,0,9.73,3.18,11.03,7.85    l-3.41,1.15c-1.07-3.6-3.49-5.86-7.62-5.86c-5.82,0-8.7,4.83-8.7,10.65c0,5.79,2.84,10.65,8.77,10.65c4.06,0,6.44-2.26,7.55-5.86    l3.41,1.15C758.91,358.39,754.97,361.53,749.26,361.53z"/>
		<path class="st0" d="M786.35,334.33v3.14h-14.06v8.31h13.49v3.14h-13.49v9.08h14.06v3.14h-17.66v-26.82H786.35z"/>
		<path class="st0" d="M810.57,337.89l-4.83,1.53v-3.26l5.48-1.84h2.95v26.82h-3.6V337.89z"/>
		<path class="st0" d="M829.04,347.05c-2.99-0.77-4.98-2.61-4.98-6.02c0-4.29,3.41-7.09,8.54-7.09c5.17,0,8.58,2.8,8.58,7.09    c0,3.41-2.03,5.25-5.02,6.02c3.37,0.77,5.67,3.07,5.67,6.97c0,4.44-3.41,7.51-9.23,7.51c-5.82,0-9.23-3.07-9.23-7.51    C823.37,350.11,825.67,347.81,829.04,347.05z M838.16,353.6c0-3.33-2.26-4.75-5.56-4.79c-3.26,0.04-5.56,1.46-5.56,4.79    c0,2.99,1.99,4.75,5.56,4.79C836.17,358.39,838.16,356.59,838.16,353.6z M832.61,345.63c3.26-0.08,4.87-1.95,4.87-4.41    c0-2.07-1.23-4.1-4.87-4.14c-3.64,0.04-4.87,2.07-4.87,4.14C827.74,343.68,829.39,345.55,832.61,345.63z"/>
		<path class="st0" d="M868.24,352.26c0,5.21-3.52,9.27-9.46,9.27c-5.71,0-8.62-3.45-9.66-7.2l3.41-1.15    c0.88,3.18,2.72,5.21,6.17,5.21c3.45,0,5.86-2.41,5.86-6.09c0-3.41-2.11-5.75-5.75-5.75c-4.14,0-5.36,3.03-5.36,3.03h-3.72    l5.1-15.25h12.3v3.14h-9.69l-2.57,7.2c1.11-0.77,2.6-1.26,4.64-1.26C865.37,343.41,868.24,347.55,868.24,352.26z"/>
		<path class="st0" d="M893.08,340.96c0,3.52-2.45,5.33-5.63,6.09c3.03,0.61,6.32,2.64,6.32,6.86c0,4.6-3.45,7.62-8.93,7.62    c-4.75,0-8.12-2.41-9.39-6.67l3.33-1.11c0.96,2.68,2.68,4.64,5.82,4.64c3.72,0,5.48-1.69,5.48-4.75c0-3.29-2.91-4.83-6.25-4.83    h-1.8v-3.18h1.69c3.33,0,5.67-1.88,5.67-4.48c0-2.07-1.49-4.06-4.71-4.06c-3.49,0-4.83,2.34-5.48,4.48l-3.37-1.11    c0.88-3.98,4.06-6.51,8.97-6.51C889.63,333.94,893.08,336.74,893.08,340.96z"/>
	</g>
</g>
</svg>